<svg xmlns="http://www.w3.org/2000/svg" xmlns:xlink="http://www.w3.org/1999/xlink" version="1.1" x="0px" y="0px" viewBox="0 0 90 112.5" enable-background="new 0 0 90 90" xml:space="preserve"><g><path d="M76.7,71.7l7.2-7.2c1.4-1.4,1.4-3.6,0-4.9c-1.4-1.4-3.6-1.4-4.9,0l-7.2,7.2l-7.2-7.2c-1.4-1.4-3.6-1.4-4.9,0   c-1.4,1.4-1.4,3.6,0,4.9l7.2,7.2l-7.2,7.2c-1.4,1.4-1.4,3.6,0,4.9c0.7,0.7,1.6,1,2.5,1c0.9,0,1.8-0.3,2.5-1l7.2-7.2l7.2,7.2   c0.7,0.7,1.6,1,2.5,1c0.9,0,1.8-0.3,2.5-1c1.4-1.4,1.4-3.6,0-4.9L76.7,71.7z"/><path d="M80,32.4c6.7-6.7,6.7-17.5-0.4-24.6c-6.7-6.7-17.5-6.7-24.1,0l-9.3,9.3c-1.4,1.4-1.4,3.6,0,4.9c1.4,1.4,3.6,1.4,4.9,0   l9.3-9.3c4-3.9,10.4-4,14.8,0.4c4,4,4,10.4,0,14.3L55.3,47.3c-4,4-10.4,4-14.3,0c-1.4-1.4-3.6-1.4-4.9,0c-1.4,1.4-1.4,3.6,0,4.9   c3.3,3.3,7.7,5,12.1,5c4.4,0,8.7-1.7,12.1-5L80,32.4z"/><path d="M37,65.6L27.7,75c-4,4-10.4,4-14.8-0.4c-4-4-4-10.4,0-14.3l19.8-19.8c4-4,10.4-4,14.3,0c1.4,1.4,3.6,1.4,4.9,0   c1.4-1.4,1.4-3.6,0-4.9c-6.7-6.7-17.5-6.7-24.1,0L8,55.3c-6.7,6.7-6.7,17.5,0.4,24.6c3.3,3.3,7.7,5,12.1,5c4.4,0,8.8-1.7,12.1-5   l9.3-9.3c1.4-1.4,1.4-3.6,0-4.9C40.6,64.3,38.4,64.3,37,65.6z"/></g></svg>