<svg xmlns="http://www.w3.org/2000/svg" viewBox="0 0 28 35" x="0px" y="0px"><title>icon_130Artboard 1</title><g><path d="M18.873,14.628a5.3,5.3,0,0,0-.255-1.111,5.284,5.284,0,0,0-.4-.965,6.607,6.607,0,0,0-1.138-1.539,6.449,6.449,0,0,0-1.53-1.129l-1.22,1.22a1.777,1.777,0,0,0-.482.847,3.712,3.712,0,0,1,2.295,2.295,3.391,3.391,0,0,1,.218.947,3.684,3.684,0,0,1-.036,1,3.8,3.8,0,0,1-1.065,2.049l-3.989,3.989a3.819,3.819,0,0,1-5.4-5.4l1.876-1.876a8.039,8.039,0,0,1-.355-3.287L4.048,15.011a6.394,6.394,0,0,0,9.043,9.043l3.989-3.989a6.4,6.4,0,0,0,1.275-1.84A6.219,6.219,0,0,0,18.873,14.628Z"/><path d="M24.044,13.1A6.394,6.394,0,0,0,15,4.057L11.013,8.046A6.4,6.4,0,0,0,9.738,9.885a6.219,6.219,0,0,0-.519,3.6,5.3,5.3,0,0,0,.255,1.111,5.282,5.282,0,0,0,.4.965A6.6,6.6,0,0,0,11.013,17.1a6.447,6.447,0,0,0,1.53,1.129l1.22-1.22a1.776,1.776,0,0,0,.482-.847,3.712,3.712,0,0,1-2.295-2.295,3.391,3.391,0,0,1-.218-.947,3.686,3.686,0,0,1,.036-1,3.8,3.8,0,0,1,1.065-2.049l3.989-3.989a3.819,3.819,0,0,1,5.4,5.4l-1.876,1.876a8.037,8.037,0,0,1,.355,3.287Z"/><rect x="3.178" y="6.117" width="1.977" height="4.131" transform="translate(-4.086 12.21) rotate(-89.03)"/><rect x="6.512" y="3.134" width="4.131" height="1.977" transform="translate(4.31 12.629) rotate(-89.03)"/><rect x="22.697" y="17.752" width="1.977" height="4.131" transform="translate(3.472 43.167) rotate(-89.036)"/><rect x="17.21" y="22.889" width="4.13" height="1.977" transform="translate(-4.928 42.743) rotate(-89.023)"/></g></svg>